<svg xmlns="http://www.w3.org/2000/svg" viewBox="0 0 120 120"><g transform="rotate(-35 60 60)"><g fill="#c9c3b6" stroke="#1d1a18" stroke-width="3" stroke-linejoin="round"><path d="M60 8l6 14H54z"/><path d="M60 112l-6-14h12z"/><path d="M24 30l14 4-8 10z"/><path d="M96 30l-6 14-8-10z"/><path d="M24 90l6-14 8 10z"/><path d="M96 90l-14-4 8-10z"/></g><ellipse cx="60" cy="60" rx="30" ry="42" fill="#7a4a2a" stroke="#1d1a18" stroke-width="4"/><path d="M40 34c14 8 26 8 40 0M40 86c14-8 26-8 40 0" fill="none" stroke="#4e2c17" stroke-width="3"/><path d="M60 30v60" stroke="#efe5d2" stroke-width="4"/><path d="M52 40h16M52 50h16M52 60h16M52 70h16M52 80h16" stroke="#efe5d2" stroke-width="3" stroke-linecap="round"/></g></svg>
